Coordinates
version=1
nRows=32
nColumns=18
inDegrees=yes

Units are S.I. units (second, meters, Newtons, ...)
Angles are in degrees.

endheader
time	pelvis_tilt	pelvis_list	pelvis_rotation	pelvis_tx	pelvis_ty	pelvis_tz	hip_flexion_r	hip_adduction_r	hip_rotation_r	knee_angle_r	ankle_angle_r	hip_flexion_l	hip_adduction_l	hip_rotation_l	knee_angle_l	ankle_angle_l	lumbar_extension
      0.88000000	     -4.24852732	     -1.99487428	      0.61537054	     -0.56143343	      0.81685126	     -0.28557622	      0.86489579	      5.90602230	      0.00000000	    -20.44130212	     18.01552575	     21.18524377	     -3.48849645	      0.00000000	    -17.34982822	     15.68084122	     -5.00000214
      0.89000000	     -4.31314928	     -2.05976881	      0.17413742	     -0.55252540	      0.81585770	     -0.28658577	      0.00452466	      5.79803419	      0.00000000	    -19.97459080	     18.04219461	     20.58439355	     -3.72388077	      0.00000000	    -13.38319003	     14.86017525	     -5.00000214
      0.90000000	     -4.38696494	     -2.14478539	     -0.33574145	     -0.54363632	      0.81453872	     -0.28753879	     -0.73913942	      5.70296680	      0.00000000	    -19.73451753	     18.15773355	     20.02406270	     -3.96566471	      0.00000000	     -9.82809088	     14.38878414	     -5.00000214
      0.91000000	     -4.33273911	     -2.24816761	     -0.73658272	     -0.53420134	      0.81323869	     -0.28863861	     -1.86707745	      5.63362519	      0.00000000	    -19.07627926	     18.23393248	     19.31291978	     -4.15014920	      0.00000000	     -6.69934418	     13.21926038	     -5.00000214
      0.92000000	     -4.31736061	     -2.35068536	     -1.13530143	     -0.52492474	      0.81167179	     -0.28985211	     -2.81655337	      5.55348508	      0.00000000	    -18.69318768	     18.32643419	     18.86541706	     -4.27722303	      0.00000000	     -4.40767830	     12.51839436	     -5.00000214
      0.93000000	     -4.23785454	     -2.44826931	     -1.47486132	     -0.51539498	      0.81012370	     -0.29119801	     -3.88604383	      5.46966388	      0.00000000	    -18.24800587	     18.38761126	     18.53651539	     -4.32142011	      0.00000000	     -2.96743057	     11.68827458	     -5.00000214
      0.94000000	     -4.15495829	     -2.52515848	     -1.76458135	     -0.50587619	      0.80854424	     -0.29277483	     -4.86711183	      5.34947714	      0.00000000	    -17.97953747	     18.38448766	     18.42960819	     -4.26689557	      0.00000000	     -2.42512489	     11.08091778	     -5.00000214
      0.95000000	     -4.11641854	     -2.59723457	     -2.13217825	     -0.49658315	      0.80693342	     -0.29430413	     -5.51289469	      5.20346569	      0.00000000	    -18.24183100	     18.37694620	     18.51489080	     -4.19471658	      0.00000000	     -2.62331051	     10.98338660	     -5.00000214
      0.96000000	     -3.90786468	     -2.62494405	     -2.12963727	     -0.48653658	      0.80569150	     -0.29651386	     -6.66845113	      5.04914031	      0.00000000	    -17.94352904	     18.24202875	     18.67338740	     -3.90240912	      0.00000000	     -3.74070232	     10.53767979	     -5.00000214
      0.97000000	     -3.76725000	     -2.66165428	     -2.16452621	     -0.47672440	      0.80447417	     -0.29871139	     -7.46482877	      4.88732375	      0.00000000	    -18.13249636	     17.79855638	     19.15058602	     -3.63193147	      0.00000000	     -5.70530068	     10.55452029	     -5.00000214
      0.98000000	     -3.64760972	     -2.71489500	     -2.10515995	     -0.46700578	      0.80336975	     -0.30105865	     -8.00315981	      4.76270359	      0.00000000	    -18.73308253	     17.18161646	     19.92422877	     -3.35072292	      0.00000000	     -8.46307012	     11.20122697	     -5.00000214
      0.99000000	     -3.49275990	     -2.79795139	     -1.98475716	     -0.45700676	      0.80249224	     -0.30348362	     -8.48401623	      4.67354768	      0.00000000	    -19.49110145	     16.40826621	     20.69611762	     -3.09916325	      0.00000000	    -11.52526413	     11.84965937	     -5.00000214
      1.00000000	     -3.31302118	     -2.87463333	     -1.87678872	     -0.44680600	      0.80187914	     -0.30593243	     -8.78013972	      4.55646147	      0.00000000	    -20.58792768	     15.33210625	     21.32089108	     -2.86188602	      0.00000000	    -14.51167430	     12.72453947	     -5.00000214
      1.01000000	     -3.09641773	     -3.02949739	     -1.78641265	     -0.43630956	      0.80159939	     -0.30816631	     -8.94999530	      4.52544184	      0.00000000	    -21.95247268	     13.87568043	     21.70876214	     -2.75732247	      0.00000000	    -17.21786251	     13.53278227	     -5.00000214
      1.02000000	     -2.86536316	     -3.11131039	     -1.71220535	     -0.42564024	      0.80171547	     -0.31063858	     -8.93858235	      4.37122208	      0.00000000	    -23.58286460	     12.07103592	     21.74431924	     -2.56933143	      0.00000000	    -19.30000836	     14.32675876	     -5.00000214
      1.03000000	     -2.64249519	     -3.20413347	     -1.67987831	     -0.41491241	      0.80222782	     -0.31304930	     -8.68349996	      4.21814521	      0.00000000	    -25.50203946	      9.89552758	     21.43680989	     -2.41175646	      0.00000000	    -20.72659034	     15.11985327	     -5.00000214
      1.04000000	     -2.41936504	     -3.29211214	     -1.65743442	     -0.40409510	      0.80310716	     -0.31542737	     -8.26441533	      4.04851478	      0.00000000	    -27.56875787	      7.07076451	     20.87113860	     -2.26922826	      0.00000000	    -21.68949495	     15.97661373	     -5.00000214
      1.05000000	     -2.20301330	     -3.36563893	     -1.66408786	     -0.39326152	      0.80434939	     -0.31776163	     -7.66175045	      3.85046608	      0.00000000	    -29.79806952	      4.00527414	     19.96428915	     -2.12867613	      0.00000000	    -22.00855270	     16.73424779	     -5.00000214
      1.06000000	     -2.02865751	     -3.44570177	     -1.67580268	     -0.38257994	      0.80582068	     -0.31998050	     -6.82639700	      3.66940509	      0.00000000	    -32.17696583	      0.85618444	     18.89290565	     -2.02087842	      0.00000000	    -21.93786024	     17.41805853	     -5.00000214
      1.07000000	     -1.86223843	     -3.47555192	     -1.70936686	     -0.37193967	      0.80750724	     -0.32219721	     -5.85292548	      3.42719913	      0.00000000	    -34.63262331	     -2.03459933	     17.59541083	     -1.87560774	      0.00000000	    -21.45470366	     17.96560909	     -5.00000214
      1.08000000	     -1.76050554	     -3.49464287	     -1.80341531	     -0.36157297	      0.80925218	     -0.32425006	     -4.62134588	      3.17312964	      0.00000000	    -37.26065937	     -3.50049626	     16.16041347	     -1.74993539	      0.00000000	    -20.56468894	     18.36029738	     -5.00000214
      1.09000000	     -1.57757588	     -3.53045170	     -1.85590724	     -0.35093829	      0.81133277	     -0.32618523	     -3.56341389	      2.96153332	      0.00000000	    -39.54991874	     -6.68341202	     14.49652936	     -1.66198725	      0.00000000	    -19.46646514	     18.65203105	     -5.00000214
      1.10000000	     -1.45327764	     -3.53610518	     -2.00601967	     -0.34063078	      0.81334952	     -0.32797155	     -2.27137742	      2.70265166	      0.00000000	    -42.00054849	     -8.05180262	     12.71927433	     -1.56430292	      0.00000000	    -17.99923794	     18.71042616	     -5.00000214
      1.11000000	     -1.43872949	     -3.57268654	     -2.20522470	     -0.33088973	      0.81513684	     -0.32948506	     -0.69140879	      2.50850351	      0.00000000	    -44.57273604	     -8.46609257	     11.14150406	     -1.53392989	      0.00000000	    -16.61830568	     18.85890717	     -5.00000214
      1.12000000	     -1.27497814	     -3.50128666	     -2.51584708	     -0.32064582	      0.81720836	     -0.33115335	      0.64161363	      2.12474775	      0.00000000	    -46.87065439	     -8.86110187	      8.94133840	     -1.34537182	      0.00000000	    -14.41155473	     18.38597341	     -5.00000214
      1.13000000	     -1.22810562	     -3.49126984	     -2.89192540	     -0.31109522	      0.81895654	     -0.33247148	      2.27014712	      1.85231365	      0.00000000	    -49.25518343	     -8.52789096	      7.00887955	     -1.24973315	      0.00000000	    -12.38619941	     17.90611949	     -5.00000214
      1.14000000	     -1.36070927	     -3.45716094	     -3.27959547	     -0.30242604	      0.82025732	     -0.33381609	      4.29556648	      1.58500913	      0.00000000	    -51.75438423	     -8.23279692	      5.55953043	     -1.11747927	      0.00000000	    -10.77426321	     17.85341835	     -5.00000214
      1.15000000	     -1.42359346	     -3.39223018	     -3.72092442	     -0.29368497	      0.82149829	     -0.33512497	      6.21406906	      1.28844640	      0.00000000	    -54.04468964	     -7.58254385	      3.90169362	     -0.92263545	      0.00000000	     -8.89255526	     17.43696079	     -5.00000214
      1.16000000	     -1.44694776	     -3.36834777	     -4.19613938	     -0.28487115	      0.82268657	     -0.33623772	      8.03072296	      1.07294321	      0.00000000	    -56.09000435	     -6.41777430	      1.95635373	     -0.75715508	      0.00000000	     -6.52419634	     16.37840831	     -5.00000214
      1.17000000	     -1.61684650	     -3.32509153	     -4.63557003	     -0.27687942	      0.82345612	     -0.33739501	     10.15778068	      0.90469604	      0.00000000	    -58.14954299	     -5.77383706	      0.56539761	     -0.56384122	      0.00000000	     -4.79311219	     15.87212994	     -5.00000214
      1.18000000	     -1.86490337	     -3.27085411	     -5.06785327	     -0.26941891	      0.82394560	     -0.33856037	     12.44384172	      0.77449872	      0.00000000	    -60.10504327	     -5.44355345	     -0.49623076	     -0.35525361	      0.00000000	     -3.45625251	     15.68825988	     -5.00000214
      1.19000000	     -1.96369161	     -3.22326952	     -5.49695823	     -0.26136960	      0.82448879	     -0.33964682	     14.40924437	      0.67653160	      0.00000000	    -61.72041750	     -4.55647777	     -2.11270485	     -0.11488600	      0.00000000	     -1.40976020	     14.62077159	     -5.00000214
